<svg width="321" height="375" viewBox="0 0 321 375" fill="none" xmlns="http://www.w3.org/2000/svg">
<g clip-path="url(#clip0_19_3)">
<path d="M213.62 404.88C216.34 404.88 219.08 403.96 221.33 402.07L317.05 321.8C322.13 317.54 322.79 309.97 318.53 304.89C314.27 299.81 306.7 299.15 301.62 303.41L205.89 383.69C200.81 387.95 200.15 395.52 204.41 400.6C206.78 403.43 210.19 404.89 213.61 404.89L213.62 404.88Z" fill="#f4f4f4"/>
<path d="M131.92 409.76C134.64 409.76 137.38 408.84 139.63 406.95L229.77 331.35C234.85 327.09 235.51 319.52 231.25 314.44C226.99 309.36 219.42 308.7 214.34 312.96L124.2 388.56C119.12 392.82 118.46 400.39 122.72 405.47C125.09 408.3 128.5 409.76 131.92 409.76Z" fill="#f4f4f4"/>
<path d="M255.9 305.79C258.62 305.79 261.36 304.87 263.61 302.98L306.81 266.75C311.89 262.49 312.55 254.92 308.29 249.84C304.03 244.76 296.46 244.1 291.38 248.36L248.18 284.59C243.1 288.85 242.44 296.42 246.7 301.5C249.07 304.33 252.48 305.79 255.9 305.79Z" fill="#f4f4f4"/>
<path d="M112.78 362.17C115.5 362.17 118.24 361.25 120.49 359.36L139.92 343.06C145 338.8 145.66 331.23 141.4 326.15C137.14 321.07 129.57 320.41 124.49 324.67L105.06 340.97C99.98 345.23 99.32 352.8 103.58 357.88C105.95 360.71 109.36 362.17 112.78 362.17Z" fill="#f4f4f4"/>
<path d="M165.16 318.25C167.88 318.25 170.62 317.33 172.87 315.44L203.17 290.03C208.25 285.77 208.91 278.2 204.65 273.12C200.39 268.04 192.82 267.38 187.74 271.64L157.44 297.05C152.36 301.31 151.7 308.88 155.96 313.96C158.33 316.79 161.74 318.25 165.16 318.25Z" fill="#f4f4f4"/>
<path d="M242.5 253.38C245.22 253.38 247.96 252.46 250.21 250.57L299.92 208.88C305 204.62 305.66 197.05 301.4 191.97C297.14 186.89 289.57 186.23 284.49 190.49L234.78 232.18C229.7 236.44 229.04 244.01 233.3 249.09C235.67 251.92 239.08 253.38 242.5 253.38Z" fill="#f4f4f4"/>
<path d="M36.7999 362.25C39.5199 362.25 42.26 361.33 44.51 359.44L64.13 342.99C69.21 338.73 69.87 331.16 65.61 326.08C61.35 321 53.7799 320.34 48.6999 324.6L29.0799 341.05C23.9999 345.31 23.34 352.88 27.6 357.96C29.97 360.79 33.3799 362.25 36.7999 362.25Z" fill="#f4f4f4"/>
<path d="M125.68 287.71C128.4 287.71 131.14 286.79 133.39 284.9L220.72 211.66C225.8 207.4 226.46 199.83 222.2 194.75C217.94 189.67 210.37 189.01 205.29 193.27L117.96 266.51C112.88 270.77 112.22 278.34 116.48 283.42C118.85 286.25 122.26 287.71 125.68 287.71Z" fill="#f4f4f4"/>
<path d="M256.4 178.09C259.12 178.09 261.86 177.17 264.11 175.28L314.19 133.28C319.27 129.02 319.93 121.45 315.67 116.37C311.41 111.29 303.84 110.63 298.76 114.89L248.68 156.89C243.6 161.15 242.94 168.72 247.2 173.8C249.57 176.63 252.98 178.09 256.4 178.09Z" fill="#f4f4f4"/>
<path d="M43.7699 292.77C46.4899 292.77 49.2299 291.85 51.4799 289.96L79.3399 266.59C84.4199 262.33 85.0799 254.76 80.8199 249.68C76.5599 244.6 68.9899 243.94 63.9099 248.2L36.0499 271.57C30.9699 275.83 30.3099 283.4 34.5699 288.48C36.9399 291.31 40.3499 292.77 43.7699 292.77Z" fill="#f4f4f4"/>
<path d="M148.94 204.57C151.66 204.57 154.4 203.65 156.65 201.76L230.72 139.64C235.8 135.38 236.46 127.81 232.2 122.73C227.94 117.65 220.37 116.99 215.29 121.25L141.22 183.37C136.14 187.63 135.48 195.2 139.74 200.28C142.11 203.11 145.52 204.57 148.94 204.57Z" fill="#f4f4f4"/>
<path d="M-17.99 280.92C-15.27 280.92 -12.53 280 -10.28 278.11L49.04 228.36C54.12 224.1 54.78 216.53 50.52 211.45C46.26 206.37 38.69 205.71 33.61 209.97L-25.71 259.72C-30.79 263.98 -31.45 271.55 -27.19 276.63C-24.82 279.46 -21.41 280.92 -17.99 280.92Z" fill="#f4f4f4"/>
<path d="M82.14 196.95C84.86 196.95 87.6 196.03 89.85 194.14L159.92 135.38C165 131.12 165.66 123.55 161.4 118.47C157.14 113.39 149.57 112.73 144.49 116.99L74.42 175.75C69.34 180.01 68.68 187.58 72.94 192.66C75.31 195.49 78.72 196.95 82.14 196.95Z" fill="#f4f4f4"/>
<path d="M-8.52998 209.35C-5.80998 209.35 -3.06999 208.43 -0.819992 206.54L220.19 21.19C225.27 16.93 225.93 9.35995 221.67 4.27995C217.41 -0.800048 209.84 -1.46005 204.76 2.79995L-16.25 188.15C-21.33 192.41 -21.99 199.98 -17.73 205.06C-15.36 207.89 -11.95 209.35 -8.52998 209.35Z" fill="#f4f4f4"/>
<path d="M-2.14998 140.36C0.570018 140.36 3.31001 139.44 5.56001 137.55L46.56 103.16C51.64 98.9 52.3 91.33 48.04 86.25C43.78 81.17 36.21 80.51 31.13 84.77L-9.86998 119.16C-14.95 123.42 -15.61 130.99 -11.35 136.07C-8.97999 138.9 -5.56998 140.36 -2.14998 140.36Z" fill="#f4f4f4"/>
</g>
<defs>

<clipPath id="clip0_19_3">
<rect width="321" height="375" fill="#aaa" transform="matrix(-1 0 0 1 321 0)"/>
</clipPath>
</defs>
</svg>
